<mxfile host="app.diagrams.net" modified="2023-02-19T22:20:00.930Z" agent="5.0 (Macintosh; Intel Mac OS X 10_15_7) AppleWebKit/537.36 (KHTML, like Gecko) Chrome/109.0.0.0 Safari/537.36" etag="SEkdgf9ORLW2ALV3ajKk" version="20.8.17" type="github">
  <diagram name="Page-1" id="lJDS6RLSJYoDU-r5e2De">
    <mxGraphModel dx="871" dy="427" grid="0" gridSize="10" guides="1" tooltips="1" connect="1" arrows="1" fold="1" page="1" pageScale="1" pageWidth="850" pageHeight="1100" math="0" shadow="0">
      <root>
        <mxCell id="0" />
        <mxCell id="1" parent="0" />
        <mxCell id="g1WEDu-rR_4wqM8P-lDM-23" style="edgeStyle=orthogonalEdgeStyle;rounded=0;orthogonalLoop=1;jettySize=auto;html=1;" edge="1" parent="1" target="g1WEDu-rR_4wqM8P-lDM-18">
          <mxGeometry relative="1" as="geometry">
            <mxPoint x="816" y="420" as="sourcePoint" />
          </mxGeometry>
        </mxCell>
        <mxCell id="g1WEDu-rR_4wqM8P-lDM-7" value="&lt;p style=&quot;margin:0px;margin-top:4px;text-align:center;&quot;&gt;&lt;i&gt;&amp;lt;&amp;lt;abstract&amp;gt;&amp;gt;&lt;/i&gt;&lt;br&gt;&lt;b&gt;HeavenlyBody&lt;/b&gt;&lt;/p&gt;&lt;hr size=&quot;1&quot;&gt;&lt;p style=&quot;margin:0px;margin-left:4px;&quot;&gt;- name: String&lt;br&gt;- avgRadiusInKm: int&lt;/p&gt;&lt;hr size=&quot;1&quot;&gt;&lt;p style=&quot;margin:0px;margin-left:4px;&quot;&gt;#HeavenlyBody(name:String, avgRadiusInKm:int)&lt;br&gt;+getName() : String&lt;/p&gt;&lt;p style=&quot;margin:0px;margin-left:4px;&quot;&gt;-setName(newName: String)&lt;br&gt;&lt;/p&gt;&lt;p style=&quot;margin:0px;margin-left:4px;&quot;&gt;+getAvgRadiusInKm() : int&lt;br&gt;&lt;/p&gt;&lt;p style=&quot;margin:0px;margin-left:4px;&quot;&gt;-setAvgRadiusInKm(radius: int)&lt;br&gt;&lt;/p&gt;&lt;p style=&quot;margin:0px;margin-left:4px;&quot;&gt;#checkAvgRadiusInKm(radius:int)&lt;br&gt;&lt;/p&gt;&lt;p style=&quot;margin:0px;margin-left:4px;&quot;&gt;+toString() : String&lt;/p&gt;&lt;p style=&quot;margin:0px;margin-left:4px;&quot;&gt;+compareTo(HeavenlyBody) : int&lt;/p&gt;&lt;p style=&quot;margin:0px;margin-left:4px;&quot;&gt;&lt;br&gt;&lt;/p&gt;" style="verticalAlign=top;align=left;overflow=fill;fontSize=12;fontFamily=Helvetica;html=1;" vertex="1" parent="1">
          <mxGeometry x="606.25" y="220" width="287.75" height="206" as="geometry" />
        </mxCell>
        <mxCell id="g1WEDu-rR_4wqM8P-lDM-9" value="&lt;p style=&quot;margin:0px;margin-top:4px;text-align:center;&quot;&gt;&lt;i&gt;&amp;lt;&amp;lt;Interface&amp;gt;&amp;gt;&lt;/i&gt;&lt;br&gt;&lt;b&gt;Comparable&amp;lt;HeavenlyBody&amp;gt;&lt;/b&gt;&lt;br&gt;&lt;/p&gt;&lt;hr size=&quot;1&quot;&gt;&lt;p style=&quot;margin:0px;margin-left:4px;&quot;&gt;&lt;br&gt;&lt;/p&gt;" style="verticalAlign=top;align=left;overflow=fill;fontSize=12;fontFamily=Helvetica;html=1;" vertex="1" parent="1">
          <mxGeometry x="623.75" y="70" width="245" height="70" as="geometry" />
        </mxCell>
        <mxCell id="g1WEDu-rR_4wqM8P-lDM-15" value="" style="line;strokeWidth=1;fillColor=none;align=left;verticalAlign=middle;spacingTop=-1;spacingLeft=3;spacingRight=3;rotatable=0;labelPosition=right;points=[];portConstraint=eastwest;strokeColor=inherit;" vertex="1" parent="1">
          <mxGeometry x="623.75" y="120" width="245" height="8" as="geometry" />
        </mxCell>
        <mxCell id="g1WEDu-rR_4wqM8P-lDM-22" style="edgeStyle=orthogonalEdgeStyle;rounded=0;orthogonalLoop=1;jettySize=auto;html=1;entryX=0;entryY=0.5;entryDx=0;entryDy=0;exitX=0.5;exitY=0;exitDx=0;exitDy=0;" edge="1" parent="1" source="g1WEDu-rR_4wqM8P-lDM-16" target="g1WEDu-rR_4wqM8P-lDM-7">
          <mxGeometry relative="1" as="geometry" />
        </mxCell>
        <mxCell id="g1WEDu-rR_4wqM8P-lDM-34" style="edgeStyle=orthogonalEdgeStyle;rounded=0;orthogonalLoop=1;jettySize=auto;html=1;entryX=0.5;entryY=0;entryDx=0;entryDy=0;" edge="1" parent="1" source="g1WEDu-rR_4wqM8P-lDM-16" target="g1WEDu-rR_4wqM8P-lDM-20">
          <mxGeometry relative="1" as="geometry" />
        </mxCell>
        <mxCell id="g1WEDu-rR_4wqM8P-lDM-16" value="&lt;p style=&quot;margin:0px;margin-top:4px;text-align:center;&quot;&gt;&lt;b&gt;Star&lt;/b&gt;&lt;/p&gt;&lt;hr size=&quot;1&quot;&gt;&lt;p style=&quot;margin:0px;margin-left:4px;&quot;&gt;&lt;br&gt;&lt;/p&gt;&lt;p style=&quot;margin:0px;margin-left:4px;&quot;&gt;+Star(name:String, avgRadiusInKm:int)&lt;br&gt;&lt;/p&gt;&lt;p style=&quot;margin:0px;margin-left:4px;&quot;&gt;+addPlanet(name:String, avgRadiusInKm:int, avgOrbitRadiusInKm:double) : Planet&lt;br&gt;&lt;/p&gt;&lt;p style=&quot;margin:0px;margin-left:4px;&quot;&gt;+getHeavenlyBodies() : [] HeavenlyBody&lt;br&gt;&lt;/p&gt;&lt;p style=&quot;margin:0px;margin-left:4px;&quot;&gt;#checkAvgRadiusInKm(radius:int)&lt;br&gt;&lt;/p&gt;&lt;p style=&quot;margin:0px;margin-left:4px;&quot;&gt;+toString() : String&lt;/p&gt;" style="verticalAlign=top;align=left;overflow=fill;fontSize=12;fontFamily=Helvetica;html=1;" vertex="1" parent="1">
          <mxGeometry x="50" y="420" width="463" height="122" as="geometry" />
        </mxCell>
        <mxCell id="g1WEDu-rR_4wqM8P-lDM-17" value="" style="line;strokeWidth=1;fillColor=none;align=left;verticalAlign=middle;spacingTop=-1;spacingLeft=3;spacingRight=3;rotatable=0;labelPosition=right;points=[];portConstraint=eastwest;strokeColor=inherit;" vertex="1" parent="1">
          <mxGeometry x="50" y="460" width="460" height="8" as="geometry" />
        </mxCell>
        <mxCell id="g1WEDu-rR_4wqM8P-lDM-18" value="&lt;p style=&quot;margin:0px;margin-top:4px;text-align:center;&quot;&gt;&lt;i&gt;&amp;lt;&amp;lt;abstract&amp;gt;&amp;gt;&lt;/i&gt;&lt;br&gt;&lt;b&gt;OrbitBody&lt;/b&gt;&lt;/p&gt;&lt;hr size=&quot;1&quot;&gt;&lt;p style=&quot;margin:0px;margin-left:4px;&quot;&gt;-avgOrbitRadiusInKm:double&lt;br&gt;&lt;/p&gt;&lt;hr size=&quot;1&quot;&gt;&lt;p style=&quot;margin:0px;margin-left:4px;&quot;&gt;#OrbitBody(name:String, avgRadiusInKm:int, avgOrbitRadiusInKm:double)&lt;/p&gt;&lt;p style=&quot;margin:0px;margin-left:4px;&quot;&gt;+getAvgOrbitRadiusInKm() : double&lt;br&gt;&lt;/p&gt;&lt;p style=&quot;margin:0px;margin-left:4px;&quot;&gt;-setAvgOrbitRadiusInKm() : double&lt;/p&gt;&lt;p style=&quot;margin:0px;margin-left:4px;&quot;&gt;#checkAvgOrbitRadiusInKm(orbitRadius:int)&lt;/p&gt;" style="verticalAlign=top;align=left;overflow=fill;fontSize=12;fontFamily=Helvetica;html=1;" vertex="1" parent="1">
          <mxGeometry x="610" y="510" width="412.5" height="140" as="geometry" />
        </mxCell>
        <mxCell id="g1WEDu-rR_4wqM8P-lDM-19" value="" style="endArrow=block;dashed=1;endFill=0;endSize=12;html=1;rounded=0;entryX=0.5;entryY=1;entryDx=0;entryDy=0;exitX=0.5;exitY=0;exitDx=0;exitDy=0;" edge="1" parent="1" source="g1WEDu-rR_4wqM8P-lDM-7" target="g1WEDu-rR_4wqM8P-lDM-9">
          <mxGeometry width="160" relative="1" as="geometry">
            <mxPoint x="723.75" y="260" as="sourcePoint" />
            <mxPoint x="883.75" y="260" as="targetPoint" />
          </mxGeometry>
        </mxCell>
        <mxCell id="g1WEDu-rR_4wqM8P-lDM-26" style="edgeStyle=orthogonalEdgeStyle;rounded=0;orthogonalLoop=1;jettySize=auto;html=1;exitX=0.5;exitY=1;exitDx=0;exitDy=0;" edge="1" parent="1" source="g1WEDu-rR_4wqM8P-lDM-20" target="g1WEDu-rR_4wqM8P-lDM-21">
          <mxGeometry relative="1" as="geometry" />
        </mxCell>
        <mxCell id="g1WEDu-rR_4wqM8P-lDM-28" style="edgeStyle=orthogonalEdgeStyle;rounded=0;orthogonalLoop=1;jettySize=auto;html=1;exitX=1;exitY=0.5;exitDx=0;exitDy=0;entryX=0.25;entryY=1;entryDx=0;entryDy=0;" edge="1" parent="1" source="g1WEDu-rR_4wqM8P-lDM-20" target="g1WEDu-rR_4wqM8P-lDM-18">
          <mxGeometry relative="1" as="geometry" />
        </mxCell>
        <mxCell id="g1WEDu-rR_4wqM8P-lDM-20" value="&lt;p style=&quot;margin:0px;margin-top:4px;text-align:center;&quot;&gt;&lt;b&gt;Planet&lt;/b&gt;&lt;/p&gt;&lt;hr size=&quot;1&quot;&gt;&lt;p style=&quot;margin:0px;margin-left:4px;&quot;&gt;&lt;br&gt;&lt;/p&gt;&lt;hr size=&quot;1&quot;&gt;&lt;p style=&quot;margin:0px;margin-left:4px;&quot;&gt;#Planet(name:String, avgRadiusInKm:int, avgOrbitRadiusInKm:double)&lt;br&gt;&lt;/p&gt;&lt;p style=&quot;margin:0px;margin-left:4px;&quot;&gt;+addMoon(name:String, avgRadiusInKm:int, avgOrbitRadiusInKm:double) : Moon&lt;br&gt;&lt;/p&gt;&lt;p style=&quot;margin:0px;margin-left:4px;&quot;&gt;+getHeavenlyBodies() : [] HeavenlyBody&lt;br&gt;&lt;/p&gt;&lt;p style=&quot;margin:0px;margin-left:4px;&quot;&gt;#checkAvgRadiusInKm(radius:int)&lt;br&gt;&lt;/p&gt;&lt;p style=&quot;margin:0px;margin-left:4px;&quot;&gt;#checkAvgOrbitRadiusInKm(orbitRadius:int)&lt;br&gt;&lt;/p&gt;&lt;p style=&quot;margin:0px;margin-left:4px;&quot;&gt;+toString() : String&lt;br&gt;&lt;/p&gt;" style="verticalAlign=top;align=left;overflow=fill;fontSize=12;fontFamily=Helvetica;html=1;" vertex="1" parent="1">
          <mxGeometry x="61.5" y="616" width="440" height="152" as="geometry" />
        </mxCell>
        <mxCell id="g1WEDu-rR_4wqM8P-lDM-29" style="edgeStyle=orthogonalEdgeStyle;rounded=0;orthogonalLoop=1;jettySize=auto;html=1;entryX=0.5;entryY=1;entryDx=0;entryDy=0;" edge="1" parent="1" source="g1WEDu-rR_4wqM8P-lDM-21" target="g1WEDu-rR_4wqM8P-lDM-18">
          <mxGeometry relative="1" as="geometry" />
        </mxCell>
        <mxCell id="g1WEDu-rR_4wqM8P-lDM-21" value="&lt;p style=&quot;margin:0px;margin-top:4px;text-align:center;&quot;&gt;&lt;b&gt;Moon&lt;/b&gt;&lt;/p&gt;&lt;hr size=&quot;1&quot;&gt;&lt;p style=&quot;margin:0px;margin-left:4px;&quot;&gt;&lt;br&gt;&lt;/p&gt;&lt;hr size=&quot;1&quot;&gt;&lt;p style=&quot;margin:0px;margin-left:4px;&quot;&gt;#Moont(name:String, avgRadiusInKm:int, avgOrbitRadiusInKm:double)&lt;/p&gt;&lt;p style=&quot;margin:0px;margin-left:4px;&quot;&gt;#checkAvgRadiusInKm(radius:int)&lt;br&gt;&lt;/p&gt;&lt;p style=&quot;margin:0px;margin-left:4px;&quot;&gt;#checkAvgOrbitRadiusInKm(orbitRadiu:int)&lt;br&gt;&lt;/p&gt;&lt;p style=&quot;margin:0px;margin-left:4px;&quot;&gt;+toString() : String&lt;br&gt;&lt;/p&gt;" style="verticalAlign=top;align=left;overflow=fill;fontSize=12;fontFamily=Helvetica;html=1;" vertex="1" parent="1">
          <mxGeometry x="606.25" y="750" width="420" height="121" as="geometry" />
        </mxCell>
        <mxCell id="g1WEDu-rR_4wqM8P-lDM-25" value="planets *" style="text;html=1;align=center;verticalAlign=middle;resizable=0;points=[];autosize=1;strokeColor=none;fillColor=none;" vertex="1" parent="1">
          <mxGeometry x="290" y="562" width="70" height="30" as="geometry" />
        </mxCell>
        <mxCell id="g1WEDu-rR_4wqM8P-lDM-27" value="moons *" style="text;html=1;align=center;verticalAlign=middle;resizable=0;points=[];autosize=1;strokeColor=none;fillColor=none;" vertex="1" parent="1">
          <mxGeometry x="405" y="805" width="70" height="30" as="geometry" />
        </mxCell>
      </root>
    </mxGraphModel>
  </diagram>
</mxfile>
